inDegrees=no
num_controls=7
num_derivatives=13
num_iterations=148
num_multipliers=7
num_parameters=0
num_slacks=7
num_states=26
objective=5.281446
objective_accelerations=0.773227
objective_balance=0.038946
objective_effort=0.249173
objective_height=4.142989
objective_ligament=0.077111
solver_duration=1617.416453
status=Solve_Succeeded
success=true
DataType=double
version=3
OpenSimVersion=4.4-2022-07-23-0e9fedc
endheader
time	/jointset/ground_pelvis/pelvis_tilt/value	/jointset/ground_pelvis/pelvis_tx/value	/jointset/ground_pelvis/pelvis_ty/value	/jointset/hip_l/hip_flexion_l/value	/jointset/hip_l/hip_adduction_l/value	/jointset/hip_l/hip_rotation_l/value	/jointset/back/lumbar_extension/value	/jointset/patellofemoral_l/patellar_flexion_l/value	/jointset/knee_l/knee_flexion_l/value	/jointset/knee_l/knee_adduction_l/value	/jointset/knee_l/knee_rotation_l/value	/jointset/ankle_l/ankle_angle_l/value	/jointset/subtalar_l/subtalar_angle_l/value	/jointset/ground_pelvis/pelvis_tilt/speed	/jointset/ground_pelvis/pelvis_tx/speed	/jointset/ground_pelvis/pelvis_ty/speed	/jointset/hip_l/hip_flexion_l/speed	/jointset/hip_l/hip_adduction_l/speed	/jointset/hip_l/hip_rotation_l/speed	/jointset/back/lumbar_extension/speed	/jointset/patellofemoral_l/patellar_flexion_l/speed	/jointset/knee_l/knee_flexion_l/speed	/jointset/knee_l/knee_adduction_l/speed	/jointset/knee_l/knee_rotation_l/speed	/jointset/ankle_l/ankle_angle_l/speed	/jointset/subtalar_l/subtalar_angle_l/speed	/forceset/tau_hip_flexion_l	/forceset/tau_hip_adduction_l	/forceset/tau_hip_rotation_l	/forceset/tau_knee_flexion_l	/forceset/tau_ankle_angle_l	/forceset/tau_subtalar_angle_l	/forceset/tau_lumbar_extension	lambda_cid13_p0	lambda_cid13_p1	lambda_cid13_p2	lambda_cid13_p3	lambda_cid13_p4	lambda_cid13_p5	lambda_cid14_p0	/jointset/ground_pelvis/pelvis_tilt/accel	/jointset/ground_pelvis/pelvis_tx/accel	/jointset/ground_pelvis/pelvis_ty/accel	/jointset/hip_l/hip_flexion_l/accel	/jointset/hip_l/hip_adduction_l/accel	/jointset/hip_l/hip_rotation_l/accel	/jointset/back/lumbar_extension/accel	/jointset/patellofemoral_l/patellar_flexion_l/accel	/jointset/knee_l/knee_flexion_l/accel	/jointset/knee_l/knee_adduction_l/accel	/jointset/knee_l/knee_rotation_l/accel	/jointset/ankle_l/ankle_angle_l/accel	/jointset/subtalar_l/subtalar_angle_l/accel	gamma_cid13_p0	gamma_cid13_p1	gamma_cid13_p2	gamma_cid13_p3	gamma_cid13_p4	gamma_cid13_p5	gamma_cid14_p0
1.5	-0.6125368685743793	-0.04817683403099743	0.7771674621814603	1.293837984574276	-0.355346109503908	-0.09885848435031751	-0.3502846788267445	0.6009076929049506	0.6009076929049626	-0.07256810033845638	-0.1744474129125599	0.0146781932081738	0.07071900079126338	1.211306648756545	0.5116884332980338	0.5225526949637618	-3.044133198684122	-0.0193039017324341	-0.5491688090878416	0.5907186187766047	-1.628215331876886	-1.62821533187709	-0.2339995140251287	0.004234287352771307	0.08213781246457545	0.0106378108975904	-0.2226467535071756	0.004913866012987759	0.0116058418758925	-0.05514558133956984	0.02049521790389942	0.02160866234767935	0.1767205910807618	-16.48325416704829	-9.048869861032379	4.074713044606295	-6.878177304775027	-429.215809581494	-69.33080280517468	-19.05996750809912	0.9044640500555817	0.9439731278389294	-0.6290857950425219	-1.943614296253082	0.3042841219401471	-0.3315329242412819	2.015160944577255	-0.6654537348013585	-0.6654537348013195	-0.2884545887325153	0.1856403488001997	0.3191777227686944	0.4073348197443584	1.574015840905923e-07	1.524618701965721e-06	-1.034547413406204e-06	2.624888530235054e-07	5.95824575343728e-07	-3.009266281648384e-07	4.3684393687665e-07
1.51	-0.6003791422570817	-0.04301330010920486	0.7823604702469976	1.263301568646183	-0.3555259024267156	-0.1043674991763809	-0.3442792209356984	0.5845939818979967	0.5845939818978582	-0.07492568940754353	-0.1743983469610394	0.01551501685673922	0.07084359816775904	1.22003836467692	0.5209441647077169	0.5159302477637959	-3.062716647652755	-0.01664526012617016	-0.5525508834299818	0.6102762267099092	-1.634309852953043	-1.634309852953139	-0.2375047502282161	0.005618009226394638	0.08522769504255741	0.01429140211835776	-0.2148888978340342	0.003900262199148627	0.01208810558421489	-0.05391930942738563	0.01756642726597974	0.02061340276299372	0.1710620459469748	-17.24913090921843	-8.67777290128757	4.238564908419737	-6.099709756277722	-424.7344420915195	-69.12883345327279	-19.64245873624942	0.8275392151608367	0.9053055370547576	-0.6964987949990751	-1.75064656798808	0.2478732202507502	-0.3286959970444024	1.911550809245166	-0.5489894050590155	-0.5489894050428277	-0.3792340588207153	0.1203421342180021	0.3040624813379677	0.3456701655859178	1.487878589691471e-07	1.666630833476551e-06	-9.827307773191627e-07	2.883757834082095e-07	6.181971068798888e-07	-2.635047071212257e-07	4.474990302088199e-07
1.52	-0.5881400960101745	-0.0377594223954107	0.7874837189180295	1.232592330954234	-0.3556788651254084	-0.1099077650074086	-0.3380810889470144	0.5682258180579265	0.5682258180579001	-0.07731786602277577	-0.1743343229854435	0.01638277312229052	0.07100499123493066	1.227570634682636	0.5297571916983497	0.5086008160627179	-3.078697551454148	-0.0139378569086686	-0.555419010085909	0.6292534383047473	-1.639105898470656	-1.639105898470646	-0.2409170233402671	0.007225892203008819	0.08832433586153671	0.0179969490328456	-0.2071310421608124	0.002886658385405727	0.01257036929416966	-0.05269303751529284	0.01463763662805284	0.01961814317838605	0.1654035008132533	-18.01702862737169	-8.307910254754431	4.40442852402572	-5.317413867449383	-420.2842813187954	-68.99882344411735	-20.20595789606398	0.6645748671232801	0.8554322440289056	-0.7704826952649924	-1.423105262805192	0.3140364441875086	-0.228743386999033	1.899081676883853	-0.4057586230926409	-0.4057586230926415	-0.2698619705252423	0.2304725693979145	0.3205293709682402	0.417725958488377	1.383022518656377e-07	1.801256877296087e-06	-9.249975773101921e-07	3.126460546615184e-07	6.358148195115685e-07	-2.232852767181845e-07	4.551737151545039e-07
1.53	-0.5758316673091401	-0.03241969804811888	0.7925302303092036	1.201736209017257	-0.355804487809289	-0.1154746868344699	-0.3316962869336214	0.551816188965789	0.5518161889657823	-0.07974340476351055	-0.1742535061818529	0.01728153652749919	0.07120373073090332	1.23391085485018	0.5381051206129784	0.5005908364781819	-3.092083012677874	-0.01117830359736887	-0.5578824117642829	0.6475985437381037	-1.642597537544293	-1.642597537544205	-0.2441678951632171	0.008974481115658448	0.09142971596636383	0.02176002185948805	-0.1994619899346157	0.002364676401458546	0.01300673898579636	-0.05158700443664329	0.01211469353490071	0.01777627800895202	0.1597727822219029	-18.71496996215081	-7.587798493793479	4.520371967378502	-4.559524176954273	-416.0634054347894	-68.19078189103165	-20.74735863217263	0.5881564878754701	0.8121590978392199	-0.8327184225827462	-1.229633157868346	0.2579184060736092	-0.2423396547228266	1.785961881101866	-0.2876016065312204	-0.287601606519245	-0.3489353157448748	0.1523577749389758	0.3058060519891657	0.3567415791306771	1.258277701561852e-07	1.928035202943621e-06	-8.609780281341714e-07	3.351986255877199e-07	6.483805370572371e-07	-1.800934926207504e-07	4.59681716189547e-07
1.54	-0.5634659542271848	-0.02699895723514869	0.7974933493380246	1.170759559146893	-0.3559023142337672	-0.1210636828975968	-0.3251312864849887	0.5353782964715099	0.5353782964715178	-0.08220069932800032	-0.1741541423445484	0.01821140647810634	0.07144032968201772	1.239027510869975	0.5459604848340242	0.4919223435921805	-3.102803138130069	-0.008378605027174307	-0.5598338573013134	0.665293125353084	-1.644758578899213	-1.644758578899045	-0.2472681880887743	0.01093529893792484	0.09454564494115836	0.02556884006127064	-0.1917929377083895	0.001842694417546695	0.01344310867740423	-0.05048097135801344	0.009591750441743032	0.01593441283955299	0.1541420636305791	-19.41573979440095	-6.867584704581732	4.636749257874989	-3.79054225239559	-411.8810476510639	-67.4527535210718	-21.26362666562811	0.4198620375733785	0.7569193053123614	-0.9021853555580641	-0.8900381084991037	0.3220654959664255	-0.1263521587306706	1.768976913208551	-0.1396390793489454	-0.1396390793489423	-0.2397461910466854	0.2729183513209687	0.3226391449618538	0.4268750335163718	1.150656681803878e-07	2.038155919666538e-06	-8.076086520146949e-07	3.505170974066067e-07	6.636281886276838e-07	-1.344478010760338e-07	4.622050823737722e-07
